<svg width="8" height="10" viewBox="0 0 8 10" fill="none" xmlns="http://www.w3.org/2000/svg">
<path d="M3 4L2 3L1.70711 2.70711C0.98058 1.98058 0.617317 1.61732 0.745167 1.30866C0.873017 1 1.38675 1 2.41421 1H5.58579C6.61325 1 7.12698 1 7.25483 1.30866C7.38268 1.61732 7.01942 1.98058 6.29289 2.70711L1.70711 7.29289C0.980579 8.01942 0.617317 8.38268 0.745167 8.69134C0.873017 9 1.38675 9 2.41421 9H5.58579C6.61325 9 7.12698 9 7.25483 8.69134C7.38268 8.38268 7.01942 8.01942 6.29289 7.29289L6 7L5 6" stroke="#A47E13" stroke-linecap="round" stroke-linejoin="round"/>
</svg>
