<?xml version="1.0" encoding="utf-8"?>
<!-- Generator: Adobe Illustrator 16.0.0, SVG Export Plug-In . SVG Version: 6.00 Build 0)  -->
<!DOCTYPE svg PUBLIC "-//W3C//DTD SVG 1.0//EN" "http://www.w3.org/TR/2001/REC-SVG-20010904/DTD/svg10.dtd">
<svg version="1.0" id="Layer_1" xmlns="http://www.w3.org/2000/svg" xmlns:xlink="http://www.w3.org/1999/xlink" x="0px" y="0px"
	 width="150px" height="150px" viewBox="0 0 150 150" enable-background="new 0 0 150 150" xml:space="preserve">
<g>
	<path fill-rule="evenodd" clip-rule="evenodd" fill="#898989" d="M72.871,89.92c0.023,19.574-9.363,29.492-23.783,28.547
		c-10.023-0.658-15.798-7.133-19.643-15.537c-6.115-13.365-2.004-29.56,9.48-38.703c7.844-6.244,15.558-5.78,22.626,1.47
		C69.097,73.435,72.71,82.809,72.871,89.92z M69.112,100.297c2.202-12.729-0.907-23.887-9.984-33.041
		c-5.445-5.49-10.793-5.88-16.999-1.825c-11.778,7.696-16.231,26.024-9.292,38.249c5.326,9.383,11.682,12.803,21.473,11.188
		c-0.819-0.525-1.311-0.869-1.829-1.168c-9.513-5.479-11.54-16.969-4.509-25.588c3.551-4.354,7.537-4.918,12.316-2.143
		C65.836,89.191,67.301,94.762,69.112,100.297z M46.891,99.455c-0.086,5.723,3.123,10.799,6.936,11.691
		c4.52,1.059,8.795-1.482,10.623-6.871c0.991-2.92,0.289-6.119-0.418-9.07c-1.114-4.645-5.604-8.33-9.555-7.92
		c-4.955,0.516-6.024,4.49-6.924,8.451C47.222,97.188,47.028,98.67,46.891,99.455z"/>
	<path fill-rule="evenodd" clip-rule="evenodd" fill="#898989" d="M76.812,93.391c0.826-10.951,4.144-20.847,12.449-28.503
		c6.973-6.429,14.708-6.543,22.01-0.493c14.259,11.813,16.181,32.116,4.394,46.381c-5.713,6.914-15.477,9.713-23.938,6.861
		c-8.137-2.742-14.44-11.93-14.91-21.748C76.777,95.059,76.812,94.225,76.812,93.391z M87.691,111.182
		c0.622,2.641,2.676,3.043,5,3.016c-1.693-0.982-3.386-1.965-5.078-2.947c-7.1-9.875-4.111-17.939,0.406-23.336
		c2.494-2.979,5.619-4.928,9.641-3c4.352,2.084,7.668,5.336,9.209,9.994c2.729,8.236-1.141,15.455-11.244,20.373
		c4.943,0.574,9.022,0.293,12.771-2.111c9.074-5.816,12.279-14.674,11.947-24.824c-0.346-10.547-5.477-18.601-14.602-24.056
		c-4.923-2.942-9.283-1.475-13.358,1.66c-10.034,7.718-15.206,24.603-11.096,36.578C82.478,105.992,83.322,109.959,87.691,111.182z
		 M104.736,100.406c-0.139-1.271-0.205-2.553-0.428-3.809c-0.738-4.18-5.652-9.467-9.189-9.279c-4.962,0.266-6.585,4.33-8.072,8.246
		c-0.406,1.07-0.624,2.234-0.785,3.377c-0.807,5.717,3.35,12.012,8.094,12.322C99.947,111.629,104.853,106.504,104.736,100.406z"/>
	<path fill-rule="evenodd" clip-rule="evenodd" fill="#191919" d="M113.244,54.335c-2.176-2.805-4.028-5.473-6.165-7.89
		c-4.048-4.582-8.901-7.464-15.354-6.425c-0.934,0.15-2.053,0.627-2.601-0.623c-0.401-0.917,0.433-1.511,0.883-2.159
		c5.373-7.729,12.366-7.805,17.771-0.203C111.865,42.786,113.945,49.116,113.244,54.335z"/>
	<path fill-rule="evenodd" clip-rule="evenodd" fill="#191919" d="M47.528,41.068c-4.292,1.883-7.895,4.581-10.501,8.562
		c-0.567,0.866-1.281,2.367-2.626,1.602c-1.413-0.806-0.968-2.103-0.165-3.347c1.924-2.979,2.158-6.777,4.56-9.539
		c1.183-0.375,1.703-1.153,1.462-2.396c1.341-1.177,2.683-2.353,4.024-3.529c1.106,0.432,2.057,0.407,2.577-0.879
		c0.525,0.003,1.051,0.006,1.576,0.009c0.569,1.198,1.477,1.299,2.571,0.793c2.628,1.249,4.58,3.276,6.34,5.522
		c-0.241,1.157-1.242,1.628-2.052,2.271c-1.76,0.033-3.52,0.066-5.28,0.1C48.812,39.396,48.046,39.864,47.528,41.068z"/>
	<path fill-rule="evenodd" clip-rule="evenodd" fill="#898989" d="M55.294,40.135c0.81-0.643,1.811-1.113,2.052-2.271
		c1.613,0.275,1.889,1.546,1.185,2.522C57.609,41.664,56.292,41.381,55.294,40.135z"/>
	<path fill-rule="evenodd" clip-rule="evenodd" fill="#898989" d="M46.859,31.541c-0.52,1.286-1.47,1.311-2.577,0.879
		C44.912,31.454,45.68,30.896,46.859,31.541z"/>
	<path fill-rule="evenodd" clip-rule="evenodd" fill="#898989" d="M47.528,41.068c0.518-1.204,1.283-1.672,2.486-0.833
		C49.409,41.178,48.573,41.434,47.528,41.068z"/>
	<path fill-rule="evenodd" clip-rule="evenodd" fill="#898989" d="M40.258,35.949c0.241,1.243-0.279,2.021-1.462,2.396
		C38.586,37.121,38.898,36.215,40.258,35.949z"/>
	<path fill-rule="evenodd" clip-rule="evenodd" fill="#898989" d="M51.006,32.342c-1.095,0.506-2.002,0.405-2.571-0.793
		C49.565,30.926,50.372,31.354,51.006,32.342z"/>
	<path fill-rule="evenodd" clip-rule="evenodd" fill="#FDFDFD" d="M69.112,100.297c-1.812-5.535-3.276-11.105-8.824-14.328
		c-4.779-2.775-8.765-2.211-12.316,2.143c-7.031,8.619-5.003,20.109,4.509,25.588c0.518,0.299,1.009,0.643,1.829,1.168
		c-9.791,1.615-16.147-1.805-21.473-11.188c-6.938-12.225-2.486-30.552,9.292-38.249c6.205-4.055,11.554-3.665,16.999,1.825
		C68.205,76.41,71.314,87.568,69.112,100.297z"/>
	<path fill-rule="evenodd" clip-rule="evenodd" fill="#FDFDFD" d="M46.891,99.455c0.137-0.785,0.331-2.268,0.661-3.719
		c0.9-3.961,1.97-7.936,6.924-8.451c3.951-0.41,8.441,3.275,9.555,7.92c0.707,2.951,1.409,6.15,0.418,9.07
		c-1.828,5.389-6.103,7.93-10.623,6.871C50.014,110.254,46.805,105.178,46.891,99.455z M62.601,100.934
		c-0.183-3.129-1.164-5.66-4.057-7.066c-1.077-0.523-2.244-0.883-3.301-0.076c-1.088,0.83-0.263,1.736,0.047,2.65
		c0.819,2.412-0.369,3.951-2.537,4.59c-2.785,0.82-2.299,2.453-1.232,4.168c1.384,2.227,3.184,3.996,6.136,3.031
		C61.2,107.072,62.152,104.094,62.601,100.934z"/>
	<path fill-rule="evenodd" clip-rule="evenodd" fill="#FDFDFD" d="M87.691,111.18c-4.369-1.221-5.214-5.188-6.403-8.652
		c-4.11-11.975,1.062-28.86,11.096-36.578c4.075-3.135,8.436-4.603,13.358-1.66c9.125,5.455,14.256,13.509,14.602,24.056
		c0.332,10.15-2.873,19.008-11.947,24.824c-3.749,2.404-7.828,2.686-12.771,2.111c10.104-4.918,13.973-12.137,11.244-20.373
		c-1.541-4.658-4.857-7.91-9.209-9.994c-4.021-1.928-7.146,0.021-9.641,3c-4.518,5.396-7.506,13.461-0.406,23.336L87.691,111.18z"/>
	<path fill-rule="evenodd" clip-rule="evenodd" fill="#FDFDFD" d="M104.74,100.406c0.112,6.098-4.793,11.223-10.385,10.857
		c-4.744-0.311-8.9-6.605-8.094-12.322c0.161-1.143,0.379-2.307,0.785-3.377c1.487-3.916,3.11-7.98,8.072-8.246
		c3.537-0.188,8.451,5.1,9.189,9.279C104.531,97.854,104.598,99.135,104.74,100.406z M101.882,101.965
		c0.038-4.039-0.981-6.352-3.501-7.883c-1.045-0.635-2.15-0.998-3.27-0.314c-1.149,0.701-0.574,1.664-0.287,2.619
		c0.781,2.611-0.346,4.135-2.895,4.723c-2.555,0.588-2.033,2.182-1.199,3.775c1.242,2.373,3.148,4.254,5.928,3.488
		C100.27,107.377,101.826,104.479,101.882,101.965z"/>
	<path fill-rule="evenodd" clip-rule="evenodd" fill="#FDFDFD" d="M87.613,111.25c1.692,0.982,3.385,1.965,5.078,2.947
		c-2.324,0.027-4.378-0.375-5-3.018L87.613,111.25z"/>
	<path fill-rule="evenodd" clip-rule="evenodd" fill="#191919" d="M62.601,100.934c-0.449,3.16-1.401,6.139-4.944,7.297
		c-2.952,0.965-4.751-0.805-6.136-3.031c-1.067-1.715-1.553-3.348,1.232-4.168c2.168-0.639,3.355-2.178,2.537-4.59
		c-0.31-0.914-1.135-1.82-0.047-2.65c1.057-0.807,2.225-0.447,3.301,0.076C61.437,95.273,62.418,97.805,62.601,100.934z"/>
	<path fill-rule="evenodd" clip-rule="evenodd" fill="#191919" d="M101.882,101.965c-0.056,2.514-1.612,5.412-5.224,6.408
		c-2.779,0.766-4.686-1.115-5.928-3.488c-0.834-1.594-1.355-3.188,1.199-3.775c2.549-0.588,3.676-2.111,2.895-4.723
		c-0.287-0.955-0.862-1.918,0.287-2.619c1.119-0.684,2.225-0.32,3.27,0.314C100.9,95.613,101.92,97.926,101.882,101.965z"/>
</g>
</svg>
