<?xml version="1.0" encoding="utf-8"?>
<!-- Generator: Adobe Illustrator 16.0.0, SVG Export Plug-In . SVG Version: 6.00 Build 0)  -->
<!DOCTYPE svg PUBLIC "-//W3C//DTD SVG 1.0//EN" "http://www.w3.org/TR/2001/REC-SVG-20010904/DTD/svg10.dtd">
<svg version="1.0" id="Layer_1" xmlns="http://www.w3.org/2000/svg" xmlns:xlink="http://www.w3.org/1999/xlink" x="0px" y="0px"
	 width="150px" height="150px" viewBox="0 0 150 150" enable-background="new 0 0 150 150" xml:space="preserve">
<polygon fill="#FFFFFF" points="16.125,75 27.125,68.778 40.25,67.5 51,70.435 58.875,76 64.417,84.25 66.523,91.481 65.552,97.957 
	58.25,108.75 43.151,115.5 31.125,115.5 22.5,112.125 13.125,106.568 11.5,99.125 9.75,95 9.75,87.25 "/>
<g>
	<path fill="#191919" d="M21.146,36.761c-0.104-0.253-0.23-0.493-0.378-0.723c0.084-0.79,0.168-1.58,0.252-2.37l0.017-0.012
		c5.407-1.388,9.665,2.455,14.601,3.21c2.325,1.229,3.615,3.923,6.39,4.516L42.09,41.6c1.424,2.169,1.394,5.979,5.896,4.496
		c1.676-0.551,2.126,1.74,2.842,2.943c3.958,6.65,7.022,13.874,12.618,19.462c0.324,1.106,0.647,2.213,0.971,3.318
		c-8.367-3.183-15.598-8.015-22.172-14.138c-10.59-9.862-22.792-11.813-34.335-6.104c-1.172-0.116-1.9,0.376-2.13,1.553
		c-0.872,0.556-1.744,1.112-2.617,1.669c-0.997-0.242-1.844-0.094-2.365,0.906c-1.897,0.591-3.784,0.436-5.667-0.075
		c-0.421-0.947-1.157-1.081-2.055-0.795c-0.615-0.383-1.229-0.766-1.844-1.148c1.164-1.947,3.727,0.28,4.898-1.644
		c0.752-0.354,1.504-0.71,2.256-1.065c1.334,0.049,1.977-0.606,1.967-1.929c1.247-1.373,2.494-2.746,3.741-4.119
		c4.01-1.94,8.021-3.881,12.032-5.821c1.335-0.116,2.671-0.232,4.007-0.349c0.841,1.564,1.609,0.428,2.086-0.201
		C23.17,37.307,22.171,36.971,21.146,36.761z"/>
	<path fill="#191919" d="M114.656,34.901c3.646-0.269,6.976-1.737,10.428-2.742c1.857-0.067,3.717-0.134,5.574-0.201
		c0.141,1.416-0.877,1.92-1.879,2.522c-0.879,0.529-1.623,1.405-1.002,2.426c0.365,0.599,1.336,1.237,1.984,1.188
		c6.576-0.496,12.204,1.681,17.199,5.801c3.092,3.071,5.129,7.677,10.629,7.239c0.717-0.057,1.357,0.424,1.131,1.166
		c-0.164,0.535-0.734,1.076-1.262,1.347c-3.745,1.926-7.361,1.512-10.896-0.657c-13.758-8.439-24.726-7.531-37.279,2.909
		c-6.002,4.991-11.814,10.304-19.229,13.24c-1.472,0.583-2.824,1.837-5.38,1.037c8.283-7.475,12.281-17.329,17.407-26.478
		c1.087,3.124,2.33,5.035,4.814,0.874c0.979-1.639,2.908-2.638,3.308-4.708C111.223,37.792,114.753,37.974,114.656,34.901z"/>
	<path fill="#898989" d="M111.756,65.496c9.449,0.075,16.844,2.282,22.943,7.702c14.037,12.475,10.81,31.845-6.731,41.056
		c-10.878,5.712-26.268,3.811-35.521-4.374c-6.52-5.769-10.15-12.856-8.657-21.642c1.774-10.434,8.418-17.072,18.108-20.687
		C105.455,66.226,109.199,65.23,111.756,65.496z M113.251,114.184c2.155-0.147,4.378-0.012,6.454-0.494
		c9.268-2.159,16.646-6.912,19.523-16.459c2.551-8.463-0.135-15.75-6.578-21.623c-9.771-8.906-27.734-9.117-37.771-0.537
		c-10.064,8.605-10.855,20.763-2.146,30.705C98.216,112.035,105.256,114.156,113.251,114.184z"/>
	<path fill="#191919" d="M53.239,97.568c-0.413,2.064-0.114,5.154-4.184,4.889c-0.898-0.059-1.651,0.425-1.847,1.339
		c-1.066,4.972-4.749,3.296-7.468,2.562c-3.817-1.031-5.97-4.063-6.651-7.963c-0.189-1.084,0.665-1.806,1.603-2.304
		c1.242-0.659,2.344-1.629,2.209-3.063c-0.206-2.186-0.812-4.291,1.97-5.379c3.138-1.229,6.266-1.26,9.157,0.389
		C51.442,89.982,53.261,93.059,53.239,97.568z"/>
	<path fill="#898989" d="M9.422,92.986c0.949,1.701,2.003,3.104,2.573,4.686c3.996,11.085,12.612,15.979,23.608,16.906
		c10.429,0.88,19.293-2.776,25.656-11.432c0.963-1.311,1.356-3.026,2.217-4.431c0.583-0.95,1.771-1.112,2.64-0.479
		c1.074,0.781-0.299,1.301-0.441,1.962c-2.103,9.76-15.23,18.231-28.435,17.829c-12.258-0.375-22.079-5.742-27.676-17.276
		C8.01,97.55,8.071,96.65,9.422,92.986z"/>
	<path fill="#898989" d="M8.998,91.508c-0.718-8.296,2.833-14.716,9.108-19.466c14.214-10.761,35.106-7.523,45.633,6.825
		c2.309,3.146,3.588,6.728,3.981,10.611c0.13,1.287,0.6,2.82-1.321,3.19c-2.199,0.425-1.909-1.451-1.988-2.58
		c-0.98-14.092-15.39-22.521-30.063-20.853C20.803,70.776,12.396,78.076,8.998,91.508z"/>
	<path fill="#898989" d="M64.417,71.819c-0.324-1.105-0.647-2.212-0.971-3.318c1.678,0.304,3.361,0.916,3.265,2.862
		C66.661,72.393,65.389,72.587,64.417,71.819z"/>
	<path fill="#898989" d="M5.779,53.131c0.23-1.177,0.958-1.669,2.13-1.553C7.859,53.001,7.067,53.406,5.779,53.131z"/>
	<path fill="#898989" d="M-6.924,54.836c0.898-0.286,1.634-0.152,2.055,0.795C-6.041,56.623-6.588,56.003-6.924,54.836z"/>
	<path fill="#898989" d="M0.797,55.706c0.521-1,1.368-1.148,2.365-0.906C2.781,56.164,2.031,56.565,0.797,55.706z"/>
	<path fill="#FDFDFD" d="M42.029,41.382"/>
	<path fill="#FDFDFD" d="M113.251,114.184c-7.995-0.026-15.035-2.147-20.519-8.408c-8.711-9.941-7.918-22.1,2.146-30.705
		c10.037-8.581,28.002-8.37,37.772,0.537c6.442,5.873,9.127,13.16,6.578,21.623c-2.877,9.547-10.258,14.3-19.524,16.459
		C117.629,114.172,115.406,114.035,113.251,114.184z M115.445,97.176c-0.371-5.438-2.752-8.729-7.322-10.289
		c-5.365-1.832-8.902,0.613-8.964,6.11c-0.015,1.229-0.276,2.396-1.421,2.983c-4.018,2.063-2.154,4.571-0.415,6.819
		c2.71,3.502,6.854,5.321,10.522,3.214C111.193,104.089,114.924,101.32,115.445,97.176z"/>
	<path fill="#191919" d="M115.445,97.176c-0.521,4.146-4.252,6.913-7.6,8.838c-3.668,2.108-7.813,0.289-10.523-3.213
		c-1.738-2.248-3.602-4.757,0.416-6.82c1.145-0.588,1.406-1.752,1.421-2.982c0.062-5.497,3.599-7.941,8.964-6.109
		C112.693,88.447,115.074,91.738,115.445,97.176z"/>
</g>
</svg>
