<?xml version="1.0" encoding="utf-8"?>
<!-- Generator: Adobe Illustrator 16.0.0, SVG Export Plug-In . SVG Version: 6.00 Build 0)  -->
<!DOCTYPE svg PUBLIC "-//W3C//DTD SVG 1.0//EN" "http://www.w3.org/TR/2001/REC-SVG-20010904/DTD/svg10.dtd">
<svg version="1.0" id="Layer_1" xmlns="http://www.w3.org/2000/svg" xmlns:xlink="http://www.w3.org/1999/xlink" x="0px" y="0px"
	 width="150px" height="150px" viewBox="0 0 150 150" enable-background="new 0 0 150 150" xml:space="preserve">
<polyline fill="#FFFFFF" stroke="#000000" stroke-miterlimit="10" points="90.5,90.183 103.625,81.666 121.35,76.225 
	133.613,76.875 138.021,83.28 138.625,91.686 133.613,98.633 114.563,103.063 96.139,99.747 89.75,95.195 89,92.139 "/>
<g>
	<path fill="#191919" d="M130.111,99.102c-0.885-3.272,2.854-3.524,3.701-5.666c1.19-0.529,1.512-1.401,1.02-2.594
		c0.01-0.826,0.021-1.652,0.033-2.48c0.531-1.239,0.146-2.086-1.102-2.563c-0.875-0.79-1.748-1.579-2.623-2.369
		c-2.224-0.605-1.724,0.756-1.425,1.973c-3.475,11.332-12.888,15.425-24.397,10.606c-0.666-1.685-1.332-3.368-2-5.055
		c0.646,0.244,1.293,0.487,1.938,0.731c0.769,1.373,1.527,1.121,2.283-0.011c2.415-0.685,3.856-2.246,3.267-4.766
		c-0.514-2.192-1.979-3.841-4.451-4.128c-2.576-0.301-4.65,0.287-5.297,3.203c-0.942,0.102-2.029-0.428-2.752,0.629
		c-2.261,0.296-3.789,1.855-5.418,3.201c-2.304,1.902-4.345,3.899-1.205,6.828c0.646,0.604,0.881,1.572,0.104,2.176
		c-0.804,0.627-1.36-0.063-1.981-0.707c-3.432-3.549-3.507-6.732,0.459-10.301c11.137-10.019,24.465-14.315,39.27-14.323
		c5.969-0.003,11.951,0.542,17.809-1.13c0.93-0.265,2.02-0.692,2.641,0.479c0.597,1.12-0.276,1.848-0.971,2.548
		c-1.662,1.682-3.686,2.791-5.877,3.62c-1.646-0.183-3.822-0.065-3.611,1.797c0.183,1.603,2.316,1.785,3.957,0.953
		c0.814-0.06,1.629-0.118,2.443-0.178c1.385,0.989,3.717-0.537,4.617,1.737c-0.4,0.304-0.799,0.606-1.199,0.91
		c-1.713,0.375-3.451,0.662-5.125,1.166c-0.779,0.234-2.227,0.482-1.459,1.817c0.518,0.903,1.598,0.95,2.461,0.103
		c0.596,0.047,1.191,0.094,1.787,0.141c1.699,3.232-2.51,3.359-2.891,5.5c-0.605,0.406-1.213,0.813-1.818,1.218
		C138.027,95.297,134.512,98.295,130.111,99.102z"/>
	<path fill="#191919" d="M31.45,74.815c0.597,0.101,1.194,0.201,1.792,0.303c1.127,1.295,2.566,1.225,4.057,0.924
		c6.771,1.763,12.952,4.771,18.707,8.729c2.749,1.891,5.176,4.002,6.352,7.244c-0.488,1.059-0.464,2.118-0.007,3.18
		c-0.111,0.578-0.222,1.156-0.333,1.734c-0.721,0.008-1.442,0.017-2.164,0.022c-0.551-0.593-0.136-1.165-0.035-1.789
		c0.674-4.2-2.617-5.942-5.368-7.365c-3.218-1.664-2.785,2.216-3.882,3.597c-1.999,2.52-4.224,4.612-7.191,5.875
		c-0.89-0.27-1.682-0.256-2.135,0.737c-2.329,0.568-4.663,0.487-7,0.05c-0.487-0.961-1.285-0.986-2.178-0.722
		c-2.721-1.017-5.354-2.133-6.577-5.715c2.58-0.144,4.759-0.226,6.403-1.884c1.725-1.737,2.353-3.803,1.08-5.86
		c-1.383-2.235-3.615-2.688-6.125-1.749c-2.322,0.869-3.76,6.162-7.288,1.529c-0.03-0.04-1.125,0.556-1.542,1.017
		c-1.587,1.749-2.972,3.616-2.453,6.212c-0.436,0.938-0.407,1.736,0.667,2.223c0.216,2.39,2.456,2.957,3.855,4.281
		c0.376,0.248,0.751,0.497,1.127,0.746v0.001c-0.104,0.921-0.289,1.802-1.192,2.313c-0.815-0.302-1.631-0.604-2.446-0.906
		c-1.045-1.69-2.745-2.021-4.528-2.178c-0.898-0.462-1.796-0.925-2.694-1.388c-0.823-1.836-2.409-2.469-4.251-2.697
		c-0.24-0.11-0.467-0.242-0.682-0.396C4.434,91,1.231,88.835,6.932,87.954c-1.787-0.438-2.708-0.666-3.629-0.892
		c-0.289-0.404-0.579-0.81-0.868-1.213c0.633-1.379-4.597-2.867,0.079-4.168c0.576,0.121,1.152,0.244,1.728,0.366
		c0.769,1.233,2.021,0.974,3.123,0.892c1.442-0.107,3.407-0.062,3.616-1.828c0.197-1.661-1.893-1.424-2.955-1.961
		c-2.616-1.325-5.56-2.184-6.943-5.331c2.289-0.977,3.851,0.859,5.456-0.212c1.901,0.149,3.802,0.3,5.703,0.449
		c1.336,1.19,2.67,1.182,4.001-0.009c3-0.001,5.999-0.003,8.998-0.004C27.156,75.536,29.282,75.342,31.45,74.815z"/>
	<path fill="#191919" d="M42.173,62.185c-0.845-0.368-1.69-0.737-2.536-1.105c-1.146-1.414-2.617-2.076-4.441-1.922
		c-1.86-0.691-3.72-1.382-5.58-2.073c-0.569-1.088-1.47-1.158-2.505-0.814c-0.626-0.125-1.252-0.249-1.878-0.374
		c-5.577-1.694-9.652,0.893-13.311,4.668c-0.931,0.814-1.861,1.629-2.792,2.444c-0.874-0.056-1.6,0.145-1.89,1.096
		c-2.16,0-1.891-1.328-1.48-2.721c1.237-4.194,3.171-8.033,6.135-11.263c3.625-3.949,7.938-4.918,13.105-3.176
		c9.797,3.305,17.289,10.034,25.065,16.373c0.055,1.269-0.951,1.455-1.819,1.782c-0.542-0.242-1.083-0.485-1.624-0.728
		C45.591,62.726,44.104,62.002,42.173,62.185z"/>
	<path fill="#191919" d="M114.598,50.843c1.178-0.621,2.355-1.242,3.533-1.863c5.708-1.719,11.418-3.616,17.072,0.165
		c0.352,0.314,0.705,0.629,1.059,0.942c-0.104,1.271,0.492,1.99,1.73,2.206c0.41,0.612,0.818,1.225,1.227,1.836
		c-0.01,1.352,0.143,2.624,1.609,3.243c0.232,0.508,0.465,1.016,0.697,1.523c-0.808,1.397,2.461,5.021-2.318,4.248
		c-0.91-0.789-1.818-1.577-2.727-2.365c-0.291-1.209-1.047-1.759-2.291-1.616c-0.242-0.12-0.482-0.244-0.724-0.373
		c-3.293-2.771-6.813-4.591-11.228-2.688c-0.6,0.094-1.197,0.188-1.797,0.281c-2.168-0.214-4.028,0.415-5.547,2.001
		c-0.813,0.335-1.631,0.669-2.444,1.004c-1.897-0.141-3.459,0.455-4.546,2.083c-0.549,0.22-1.098,0.439-1.646,0.659
		c-1.844-0.5-3.137,1.753-5.031,1.008c-1.113-1.012,0.459-1.811,0.219-2.753c2.25-1.773,4.5-3.548,6.75-5.321
		c1.197,0.085,2.029-0.348,2.285-1.603c0.611-0.427,1.224-0.853,1.834-1.279C113.454,52.378,114.229,51.955,114.598,50.843z"/>
	<path fill="#898989" d="M130.111,99.102c4.4-0.807,7.916-3.805,12.188-4.931c-10.527,7.64-21.994,11.796-35.203,9.505
		c1.916-1.96,5.45,1.088,6.924-2.238C119.438,101.034,124.484,98.07,130.111,99.102z"/>
	<path fill="#191919" d="M52.907,102.475c-1.469,0.342-2.938,0.684-4.407,1.023c-1.27-0.778-2.337-0.475-3.26,0.607
		c-3.352,0.021-6.704,0.041-10.056,0.063c0.353-0.671,0.706-1.342,1.059-2.013c6.722-0.525,13.5-0.755,19.76-3.726
		c0.531,0.643,1.062,1.284,1.593,1.928c-0.704,0.367-1.408,0.732-2.112,1.101C54.335,101.061,53.376,101.146,52.907,102.475z"/>
	<path fill="#898989" d="M6.537,73.609c-1.605,1.071-3.167-0.765-5.456,0.212c1.383,3.147,4.327,4.005,6.943,5.33
		c1.062,0.539,3.151,0.301,2.955,1.963c-0.209,1.767-2.174,1.72-3.616,1.826c-1.102,0.082-2.354,0.344-3.123-0.891
		c0.048-0.954,3.407-0.601,0.998-2.511c-0.515-0.408-1.121-0.701-1.672-1.065c-2.04-1.354-5.256-2.802-3.752-5.495
		C1.678,69.636,4.273,72.992,6.537,73.609z"/>
	<path fill="#898989" d="M36.244,102.155c-0.353,0.671-0.706,1.342-1.059,2.013c-5.501,0.575-10.582-0.563-15.167-3.72
		c0.903-0.511,1.087-1.392,1.192-2.313C25.817,100.986,31.414,100.139,36.244,102.155z"/>
	<path fill="#898989" d="M135.203,49.145c-5.654-3.781-11.364-1.884-17.072-0.165C123.561,44.074,130.986,44.146,135.203,49.145z"/>
	<path fill="#191919" d="M114.02,101.438c-1.474,3.326-5.008,0.278-6.924,2.238c-3.318-0.722-7.13,0.438-9.853-2.57
		c0.405-0.453,0.812-0.905,1.216-1.358c0.6,0.235,1.198,0.47,1.797,0.705c0.371,1.251,1.221,0.866,2.037,0.595
		c0.291,0.021,0.579,0.002,0.864-0.059c1.358,0.129,2.628,1.813,4.083,0.229C109.5,101.291,111.76,101.363,114.02,101.438z"/>
	<path fill="#898989" d="M103.318,90.954c0.668,1.687,1.334,3.37,2,5.055c-4.312-1.657-6.365-5-7.012-9.395
		c0.723-1.058,1.81-0.527,2.752-0.628C101.813,87.643,102.564,89.299,103.318,90.954z"/>
	<path fill="#898989" d="M11.922,60.563c3.659-3.775,7.734-6.362,13.311-4.668C20.482,56.556,16.313,58.875,11.922,60.563z"/>
	<path fill="#898989" d="M48.248,65.1c0.868-0.327,1.874-0.514,1.819-1.782c0.601,0.201,1.333,0.251,1.774,0.636
		c1.028,0.896,3.019,1.736,1.775,3.406c-1.142,1.534-2.663,0.146-3.942-0.487C48.928,66.502,48.224,66.093,48.248,65.1z"/>
	<path fill="#898989" d="M3.3,87.063c0.921,0.227,1.842,0.453,3.629,0.893c-5.701,0.881-2.498,3.046-1.513,4.929
		C0.317,90.641-0.036,89.669,3.3,87.063z"/>
	<path fill="#898989" d="M122.24,56.101c4.412-1.902,7.934-0.082,11.227,2.688C129.725,57.893,125.982,56.996,122.24,56.101z"/>
	<path fill="#898989" d="M2.511,81.684c-4.676,1.301,0.554,2.789-0.079,4.168c-1.911-0.653-4.616-0.93-3.708-3.818
		C-0.719,80.266,1.074,80.092,2.511,81.684z"/>
	<path fill="#898989" d="M100.508,65.427c-1.212,0.782-2.357,1.716-3.658,2.296c-0.978,0.436-2.492,0.826-2.83-0.729
		c-0.278-1.294,0.783-1.97,2.119-1.957c0.729,0.581,1.467,1.402,2.103-0.095c0,0-0.175,0.127-0.173,0.127
		c0.646-0.084,1.293-0.167,1.939-0.25C100.174,65.021,100.342,65.224,100.508,65.427z"/>
	<path fill="#898989" d="M139.207,63.144c4.779,0.772,1.512-2.851,2.318-4.248c1.908,1.541,2.852,3.506,0.981,5.447
		C141.25,65.649,139.775,65.043,139.207,63.144z"/>
	<path fill="#898989" d="M144.117,92.953c0.381-2.141,4.59-2.268,2.891-5.5c3.219-0.348,2.631,1.589,1.553,3.078
		C147.57,91.9,146.025,92.934,144.117,92.953z"/>
	<path fill="#898989" d="M145.221,87.313c-0.863,0.85-1.943,0.803-2.461-0.102c-0.768-1.335,0.68-1.583,1.459-1.816
		c1.674-0.504,3.412-0.791,5.125-1.168C149.014,86.65,145.809,85.232,145.221,87.313z"/>
	<path fill="#898989" d="M150.543,83.316c-0.9-2.274-3.232-0.748-4.617-1.737c1.088-1.329,2.678-1.313,4.061-1.106
		C152.328,80.82,152.922,81.866,150.543,83.316z"/>
	<path fill="#898989" d="M57.597,100.357c-0.531-0.644-1.062-1.285-1.593-1.928c0.423-0.701,0.875-1.266,1.651-0.363
		c1.101,0.168,2.303,0.563,2.544-1.158l-0.346,0.047c0.721-0.01,1.442-0.018,2.163-0.025
		C61.771,99.654,59.913,100.302,57.597,100.357z"/>
	<path fill="#898989" d="M31.45,74.815c-2.167,0.526-4.293,0.721-6.211-0.77C27.464,73.053,29.555,73.14,31.45,74.815z"/>
	<path fill="#898989" d="M98.459,99.746c-0.404,0.453-0.811,0.906-1.216,1.359c-1.829-0.049-3.058-0.864-3.548-2.777
		C95.576,98.01,97.377,97.641,98.459,99.746z"/>
	<path fill="#898989" d="M143.482,81.757c-1.642,0.832-3.775,0.649-3.957-0.952c-0.211-1.863,1.965-1.979,3.611-1.798
		C143.252,79.924,143.367,80.84,143.482,81.757z"/>
	<path fill="#898989" d="M101.229,63.137c1.896,0.745,3.188-1.508,5.031-1.008c-1.217,2.321-3.742,2.358-5.752,3.298
		c-0.166-0.203-0.334-0.405-0.5-0.607c0.419-0.575,0.838-1.15,1.258-1.726L101.229,63.137z"/>
	<path fill="#898989" d="M114.896,58.383c1.518-1.586,3.379-2.215,5.545-2.001C119.047,58.304,117.068,58.614,114.896,58.383z"/>
	<path fill="#898989" d="M6.097,93.279c1.842,0.229,3.428,0.861,4.251,2.697C8.311,96.057,6.763,95.361,6.097,93.279z"/>
	<path fill="#898989" d="M37.298,76.042c-1.491,0.301-2.929,0.371-4.057-0.924C34.925,73.972,36.265,74.333,37.298,76.042z"/>
	<path fill="#898989" d="M13.043,97.364c1.784,0.155,3.483,0.485,4.528,2.178C15.596,99.785,13.985,99.27,13.043,97.364z"/>
	<path fill="#898989" d="M42.173,62.185c1.932-0.183,3.418,0.541,4.451,2.188C44.493,64.958,43.15,63.943,42.173,62.185z"/>
	<path fill="#898989" d="M35.196,59.157c1.824-0.154,3.295,0.508,4.441,1.922C37.533,61.879,36.168,60.972,35.196,59.157z"/>
	<path fill="#898989" d="M101.447,60.384c0.24,0.942-1.334,1.741-0.219,2.753l0.037-0.043c-1.013-0.982-1.98,0.366-2.979,0.057
		C98.627,61.414,99.549,60.34,101.447,60.384z"/>
	<path fill="#898989" d="M107.904,61.47c1.088-1.628,2.648-2.224,4.547-2.083C111.438,61.173,109.873,61.762,107.904,61.47z"/>
	<path fill="#898989" d="M16.241,74.05c-1.331,1.19-2.665,1.199-4.001,0.009C13.571,72.903,14.905,72.953,16.241,74.05z"/>
	<path fill="#898989" d="M62.349,95.195c-0.457-1.062-0.481-2.121,0.007-3.18C64.373,93.081,64.765,94.143,62.349,95.195z"/>
	<path fill="#898989" d="M140.828,57.372c-1.467-0.619-1.619-1.892-1.609-3.243C140.949,54.618,141.146,55.867,140.828,57.372z"/>
	<path fill="#898989" d="M107.24,101.218c-1.455,1.582-2.725-0.102-4.083-0.229C104.607,99.477,105.947,99.923,107.24,101.218z"/>
	<path fill="#898989" d="M45.241,104.105c0.922-1.082,1.99-1.387,3.26-0.607C47.632,104.872,46.522,104.948,45.241,104.105z"/>
	<path fill="#191919" d="M98.286,63.15c0.999,0.31,1.968-1.039,2.979-0.057c-0.42,0.575-0.84,1.15-1.259,1.726
		c-0.647,0.083-1.294,0.166-1.94,0.25C97.059,64.306,97.828,63.746,98.286,63.15z"/>
	<path fill="#898989" d="M102.293,101.046c-0.816,0.272-1.666,0.656-2.037-0.595C101.588,98.411,101.668,100.663,102.293,101.046z"
		/>
	<path fill="#898989" d="M7.241,64.104c0.29-0.951,1.016-1.151,1.89-1.096C8.887,64.038,8.686,65.143,7.241,64.104z"/>
	<path fill="#898989" d="M134.189,59.162c1.244-0.143,2,0.407,2.291,1.616C135.164,61.023,134.432,60.439,134.189,59.162z"/>
	<path fill="#898989" d="M129.717,85.402c-0.299-1.217-0.799-2.579,1.424-1.973C131.205,84.477,130.615,85.051,129.717,85.402z"/>
	<path fill="#898989" d="M134.832,90.842c0.492,1.191,0.172,2.063-1.02,2.594C133.256,92.219,133.629,91.367,134.832,90.842z"/>
	<path fill="#898989" d="M27.111,56.27c1.035-0.344,1.936-0.273,2.505,0.814C28.45,57.831,27.663,57.411,27.111,56.27z"/>
	<path fill="#898989" d="M110.482,53.46c-0.256,1.255-1.09,1.688-2.285,1.603C108.463,53.819,109.17,53.209,110.482,53.46z"/>
	<path fill="#898989" d="M133.764,85.799c1.248,0.477,1.633,1.322,1.103,2.563C133.57,87.906,133.439,86.95,133.764,85.799z"/>
	<path fill="#898989" d="M137.992,52.293c-1.238-0.216-1.836-0.936-1.73-2.206C137.639,50.193,138.152,50.98,137.992,52.293z"/>
	<path fill="#898989" d="M114.598,50.843c-0.369,1.112-1.144,1.535-2.281,1.338C112.635,50.98,113.251,50.29,114.598,50.843z"/>
	<path fill="#898989" d="M52.907,102.475c0.469-1.328,1.428-1.414,2.578-1.017C54.978,102.689,54.116,103.021,52.907,102.475z"/>
	<path fill="#191919" d="M98.24,64.942c-0.635,1.497-1.374,0.676-2.102,0.095C96.822,64.663,97.484,63.767,98.24,64.942z"/>
	<path fill="#FDFDFD" d="M103.318,90.954c-0.754-1.655-1.508-3.312-2.26-4.968c0.646-2.916,2.721-3.504,5.297-3.204
		c2.473,0.288,3.938,1.936,4.451,4.128c0.592,2.52-0.852,4.081-3.267,4.766c-0.765-0.578-1.524-0.603-2.283,0.01
		C104.611,91.441,103.965,91.198,103.318,90.954z"/>
	<path fill="#898989" d="M105.258,91.686c0.76-0.611,1.52-0.588,2.283-0.01C106.785,92.807,106.025,93.061,105.258,91.686z"/>
	<path fill="#FDFDFD" d="M57.655,98.066c-0.775-0.901-1.228-0.338-1.651,0.363c-6.26,2.971-13.038,3.199-19.76,3.726
		c-4.83-2.017-10.426-1.169-15.034-4.02v-0.001c-0.018-0.787-0.323-1.144-1.127-0.746c-1.399-1.324-3.639-1.893-3.855-4.281
		c1.012-1.11,0.484-1.76-0.667-2.223c-0.519-2.596,0.866-4.463,2.453-6.212c0.418-0.461,1.512-1.057,1.542-1.017
		c3.528,4.633,4.965-0.66,7.288-1.529c2.51-0.939,4.741-0.486,6.125,1.749c1.273,2.06,0.646,4.123-1.08,5.86
		c-1.644,1.658-3.823,1.74-6.403,1.884c1.223,3.582,3.856,4.698,6.577,5.715c0.384,1.271,1.008,1.82,2.178,0.722
		c2.336,0.438,4.67,0.52,7-0.05c1.167,1.073,1.792,0.576,2.135-0.737c2.968-1.263,5.192-3.355,7.191-5.875
		c1.097-1.381,0.664-5.261,3.882-3.597c2.751,1.423,6.042,3.165,5.368,7.365c-0.101,0.624-0.516,1.196,0.035,1.789
		c0,0.002,0.347-0.045,0.347-0.044C58.717,95.9,58.287,97.205,57.655,98.066z"/>
	<path fill="#898989" d="M34.24,98.059c-1.17,1.099-1.794,0.549-2.178-0.723C32.956,97.07,33.753,97.098,34.24,98.059z"/>
	<path fill="#898989" d="M15.561,90.886c1.151,0.462,1.679,1.111,0.667,2.222C15.153,92.622,15.125,91.824,15.561,90.886z"/>
	<path fill="#898989" d="M43.375,97.271c-0.343,1.313-0.968,1.811-2.135,0.736C41.693,97.014,42.485,97.001,43.375,97.271z"/>
	<path fill="#898989" d="M20.083,97.389c0.804-0.396,1.109-0.041,1.127,0.747C20.834,97.887,20.458,97.639,20.083,97.389z"/>
	<path fill="#191919" d="M57.655,98.066c0.632-0.861,1.062-2.166,2.544-1.157C59.958,98.629,58.755,98.234,57.655,98.066z"/>
</g>
</svg>
