<?xml version="1.0" encoding="utf-8"?>
<!-- Generator: Adobe Illustrator 16.0.0, SVG Export Plug-In . SVG Version: 6.00 Build 0)  -->
<!DOCTYPE svg PUBLIC "-//W3C//DTD SVG 1.0//EN" "http://www.w3.org/TR/2001/REC-SVG-20010904/DTD/svg10.dtd">
<svg version="1.0" id="Layer_1" xmlns="http://www.w3.org/2000/svg" xmlns:xlink="http://www.w3.org/1999/xlink" x="0px" y="0px"
	 width="150px" height="150px" viewBox="0 0 150 150" enable-background="new 0 0 150 150" xml:space="preserve">
<g>
	<path fill-rule="evenodd" clip-rule="evenodd" fill="#191919" d="M30.723,75.063c2.631-1.731,5.262-3.463,7.894-5.193
		c-6.712-0.744-12.813,1.129-19.044,0.713c-2.109-0.141-5.52,1.469-6.019-1.31c-0.351-1.953,3.325-2.015,5.227-2.799
		c13.533-5.581,27.228-10.816,39.439-19.117c1.12-0.762,2.143-1.735,3.539-0.64c1.442,1.134,1.824,2.719,1.739,4.46
		c-0.201,4.13-3.385,6.655-5.318,9.854c-0.676,0.283-0.973,0.718-0.563,1.43c-3.112-1.256-5.474,0.754-7.916,1.986
		c-4.289,2.164-4.272,2.867-0.379,5.507c5.91,4.007,7.409,11.708,3.42,17.571c-3.762,5.529-11.631,7.099-17.263,3.458
		c-1.834-1.186-3.258-2.468-1.493-4.766c2.302-1.89,2.214-3.644-0.299-5.259l-0.002-0.003C33.24,78.719,28.233,78.774,30.723,75.063
		z"/>
	<path fill-rule="evenodd" clip-rule="evenodd" fill="#191919" d="M96.396,55.308c-4.016-3.34-7.969-6.696-7.873-12.626
		c0.04-2.5,0.623-4.864,3.058-5.8c2.273-0.874,3.007,1.616,4.143,2.869c9.798,10.812,21.423,19.461,33.035,28.136
		c1.384,1.033,3.373,1.52,3.86,3.843c-3.536,0.949-6.463-0.974-9.582-1.635c-0.584-1.108-1.506-1.201-2.573-0.852
		c-2.292-0.796-4.573-1.624-6.88-2.372c-0.947-0.307-2.079-1.883-2.875-0.271c-0.58,1.173-0.039,2.988,1.383,3.253
		c3.555,0.661,5.735,3.499,8.738,4.98c-0.012,2.838-1.458,5.599-0.457,8.491c-3.823,8.928-13.208,11.7-20.063,5.94
		c-1.763-1.481-3.264-2.785-0.928-5.182c1.779-1.824,1.638-4.247-0.635-5.491c-3.752-2.054-2.031-4.214-0.551-6.438
		c1.316-1.978,3.316-3.178,5.389-4.241c1.07-0.311,2.133-0.648,3.211-0.929c3.101-0.805,2.838-2.988,0.819-4.044
		C103.545,60.811,100.5,57.296,96.396,55.308z M110.146,64.399l-0.163,0.237l0.234,0.042L110.146,64.399z"/>
	<path fill-rule="evenodd" clip-rule="evenodd" fill="#898989" d="M120.373,83.324c-1.001-2.893,0.445-5.653,0.457-8.491
		c6.508,2.782,10.656,8.197,14.822,13.518c1.653,2.11,0.429,4.559-0.452,6.649c-7.483,17.758-30.804,24.498-46.367,8.271
		c-6.339-6.609-8.685-14.83-8.779-23.704c-0.103-9.647,4.678-16.394,13.418-20.238c1.972-0.868,3.789-1.322,2.925-4.021
		c4.104,1.988,7.148,5.503,11.22,7.632c2.019,1.056,2.281,3.239-0.819,4.044c-1.078,0.28-2.141,0.618-3.211,0.929
		c-1.462-3.664-3.816-7.517-7.953-6.29c-5.476,1.624-10.155,5.434-11.564,11.471c-3.221,13.808,2.83,32.355,20.882,36.393
		c10.583,2.366,24.222-5.475,27.683-15.791c0.674-2.009,1.002-3.813-0.563-5.562c-3.057-3.416-6.02-6.924-9.928-9.476
		C121.066,80.231,122.326,82.363,120.373,83.324z"/>
	<path fill-rule="evenodd" clip-rule="evenodd" fill="#898989" d="M30.723,75.063c-2.49,3.712,2.517,3.656,2.961,5.894
		c-3.174-0.695-6.353-1.906-8.979,1.434c-1.638,2.082-3.606,3.904-5.419,5.85c-1.915,2.055-2,4.144-0.944,6.827
		c5.084,12.912,21.132,19.142,33.613,12.859c17.86-8.989,20.884-32.105,5.846-44.569c-0.184-0.152-0.129-0.591-0.186-0.896
		c-0.409-0.712-0.113-1.146,0.563-1.43c6.434,2.579,10.417,6.978,11.31,14.135c2.122,17.016-5.312,32.765-21.094,37.238
		c-13.766,3.901-30.267-5.38-33.936-19.066c-0.362-1.352-0.59-2.653,0.303-3.808C19.223,83.766,23.703,78.008,30.723,75.063z"/>
	<path fill-rule="evenodd" clip-rule="evenodd" fill="#898989" d="M120.464,69.243c1.067-0.35,1.989-0.257,2.573,0.852
		C121.85,70.81,121.002,70.495,120.464,69.243z"/>
	<path fill-rule="evenodd" clip-rule="evenodd" fill="#FDFDFD" d="M57.615,62.461c0.057,0.305,0.002,0.743,0.186,0.896
		c15.038,12.464,12.014,35.58-5.846,44.569c-12.48,6.282-28.529,0.053-33.613-12.859c-1.056-2.684-0.971-4.772,0.944-6.827
		c1.813-1.945,3.782-3.768,5.419-5.85c2.625-3.34,5.804-2.129,8.979-1.434l0.002,0.003c0.1,1.753,0.199,3.506,0.299,5.259
		c-1.766,2.298-0.341,3.58,1.493,4.766c5.631,3.641,13.501,2.071,17.263-3.458c3.989-5.863,2.49-13.564-3.42-17.571
		c-3.894-2.64-3.91-3.343,0.379-5.507C52.142,63.215,54.503,61.205,57.615,62.461z"/>
	<path fill-rule="evenodd" clip-rule="evenodd" fill="#898989" d="M33.985,86.218c-0.1-1.753-0.199-3.506-0.299-5.259
		C36.2,82.574,36.288,84.328,33.985,86.218z"/>
	<path fill-rule="evenodd" clip-rule="evenodd" fill="#FDFDFD" d="M120.373,83.324c1.953-0.961,0.693-3.093,1.77-4.667
		c3.908,2.552,6.871,6.06,9.928,9.476c1.564,1.749,1.236,3.553,0.563,5.562c-3.461,10.316-17.1,18.157-27.683,15.791
		C86.898,105.448,80.848,86.9,84.068,73.093c1.409-6.037,6.089-9.847,11.564-11.471c4.137-1.227,6.491,2.626,7.953,6.29
		c-2.072,1.063-4.072,2.264-5.389,4.241c-1.48,2.225-3.201,4.385,0.551,6.438c2.272,1.244,2.414,3.667,0.635,5.491
		c-2.336,2.396-0.835,3.7,0.928,5.182C107.165,95.024,116.55,92.252,120.373,83.324z"/>
	<polygon fill-rule="evenodd" clip-rule="evenodd" fill="#898989" points="110.146,64.399 110.217,64.679 109.982,64.637 	"/>
</g>
</svg>
