<?xml version="1.0" encoding="utf-8"?>
<!-- Generator: Adobe Illustrator 16.0.0, SVG Export Plug-In . SVG Version: 6.00 Build 0)  -->
<!DOCTYPE svg PUBLIC "-//W3C//DTD SVG 1.0//EN" "http://www.w3.org/TR/2001/REC-SVG-20010904/DTD/svg10.dtd">
<svg version="1.0" id="Layer_1" xmlns="http://www.w3.org/2000/svg" xmlns:xlink="http://www.w3.org/1999/xlink" x="0px" y="0px"
	 width="150px" height="150px" viewBox="0 0 150 150" enable-background="new 0 0 150 150" xml:space="preserve">
<polygon fill="#FFFFFF" points="100.678,80.125 94.75,84.688 92.938,92.412 97.514,100.75 107.188,102.938 114.375,98.563 
	116.811,89.063 112.25,82.625 107.938,79.75 "/>
<g>
	<path fill="#191919" d="M112.684,76.128c-0.262-0.125-0.52-0.257-0.772-0.397c-2.858-2.79-6.296-4.088-10.276-3.984
		c-0.547-0.127-1.095-0.254-1.643-0.381c-1.695-1.501-3.623-1.396-5.619-0.811c-2.178-0.009-4.354-0.019-6.531-0.026
		c-3.785-0.099-2.855-3.854-4.408-5.686c-0.375-2.81-0.752-5.619-1.129-8.429c0.529-1.547,0.592-3.011-0.76-4.22
		c0.053-1.839-1.117-3.854,0.791-5.422c11.086-1.932,21.868-0.995,32.281,3.42c0.537,0.282,1.072,0.565,1.609,0.849
		c0.676,1.386,1.791,2.113,3.321,2.215c0.248,0.154,0.492,0.313,0.733,0.479c0.566,1.486,1.648,2.329,3.214,2.565
		c0.922,0.817,1.844,1.635,2.767,2.452c0.146,1.055,0.739,1.653,1.803,1.778c0.814,0.925,1.631,1.85,2.445,2.774
		c0.276,2.418-1.267,4.728-0.435,7.178c-0.132,0.903-0.263,1.807-0.394,2.71c-1.02,0.878-1.285,1.857-0.399,2.991
		c-0.144,0.881-0.284,1.76-0.427,2.639c-1.594,1.664-1.27,3.635-0.896,5.611c-0.08,0.588-0.16,1.178-0.24,1.767
		c-1.041,0.005-2.082,0.01-3.123,0.015c-2.596-2.425-5.189-4.852-7.785-7.275C116.057,77.088,114.525,76.377,112.684,76.128z"/>
	<path fill="#191919" d="M55.073,46.105c12.844,0.171,13.101,0.443,11.319,13.05c-0.533,3.771-0.162,8.274-2.138,11.084
		c-2.261,3.216-7.085,0.868-10.766,1.27c-11.088,1.209-20.206,6.07-27.799,14.104c-0.934,0.988-1.617,2.953-3.431,2.264
		c-1.667-0.634-1.237-2.559-1.473-3.956c-0.909-5.403-1.643-10.838-2.586-16.235c-0.349-1.994,0.075-3.527,1.455-4.981
		C29.301,52.542,40.559,45.858,55.073,46.105z"/>
	<path fill="#898989" d="M44.084,78.813c7.315-0.016,13.662,6.207,13.522,13.256c-0.147,7.484-6.334,13.801-13.603,13.887
		c-7.137,0.085-13.15-5.873-13.294-13.171C30.548,84.516,35.989,78.831,44.084,78.813z M43.888,102.512
		c6.843,0.09,10.665-3.585,10.7-10.285c0.032-6.267-3.938-10.26-10.286-10.341c-6.236-0.079-10.564,3.954-10.701,9.974
		C33.445,98.688,37.054,102.423,43.888,102.512z"/>
	<path fill="#898989" d="M99.738,80.587c4.719-3.474,10.711-2.687,14.463,0.96c3.904,3.795,5.011,10.803,2.564,16.25
		c-2.041,4.546-6.19,6.816-11.758,6.434c-11.143-0.768-16.4-8.996-12.016-19.062c0.508-1.166,0.352-4.053,2.748-3.063
		c2.615,1.08,0.273,2.696-0.274,4.018c-1.87,4.509-1.651,8.939,1.468,12.662c2.789,3.328,6.694,3.744,10.855,2.622
		c5.077-1.369,7.844-4.958,7.553-10.142c-0.326-5.834-4.041-10.199-9.232-10.648C104.001,80.436,101.863,80.587,99.738,80.587z"/>
	<path fill="#898989" d="M114.616,50.191c-10.413-4.415-21.195-5.352-32.281-3.42C90.1,41.802,108.957,44.028,114.616,50.191z"/>
	<path fill="#191919" d="M101.768,88.361c3.342-1.803,5.83-0.752,7.357,2.482c1.217,2.574,0.023,4.77-2.277,5.831
		c-2.662,1.228-5.242,0.951-6.277-2.515c3.535,0.436,4.957-0.296,2.082-3.613C102.164,89.986,102.053,89.1,101.768,88.361z"/>
	<path fill="#898989" d="M101.768,88.361c0.285,0.736,0.396,1.625,0.885,2.187c2.875,3.317,1.453,4.05-2.082,3.613
		c0-0.001,0.107,0.077,0.107,0.078c-0.303-0.298-0.604-0.595-0.904-0.892C98.898,91.07,99.104,89.225,101.768,88.361z"/>
	<path fill="#898989" d="M101.634,71.745c3.979-0.104,7.419,1.195,10.276,3.985C108.232,75.053,104.822,73.682,101.634,71.745z"/>
	<path fill="#898989" d="M83.434,64.842c1.553,1.831,0.621,5.587,4.407,5.686C83.875,71.997,82.718,70.506,83.434,64.842z"/>
	<path fill="#898989" d="M130.075,70.481c-0.832-2.451,0.711-4.76,0.435-7.178C133.254,65.871,131.354,68.158,130.075,70.481z"/>
	<path fill="#898989" d="M94.372,70.554c1.996-0.585,3.924-0.69,5.619,0.811C97.977,72.074,96.027,72.325,94.372,70.554z"/>
	<path fill="#898989" d="M127.959,84.434c-0.372-1.979-0.697-3.947,0.896-5.611C129.512,80.845,129.773,82.805,127.959,84.434z"/>
	<path fill="#898989" d="M124.596,86.213c1.041-0.005,2.082-0.01,3.123-0.015c1.129,1.104,0.148,1.937-0.632,2.131
		C125.557,88.708,124.77,87.703,124.596,86.213z"/>
	<path fill="#898989" d="M81.544,52.193c1.351,1.209,1.289,2.673,0.759,4.22C80.624,55.263,80.624,53.811,81.544,52.193z"/>
	<path fill="#898989" d="M112.684,76.128c1.844,0.249,3.373,0.96,4.127,2.81C114.951,78.71,113.338,78.122,112.684,76.128z"/>
	<path fill="#898989" d="M123.495,56.299c-1.565-0.236-2.646-1.079-3.214-2.565C122.232,53.485,123.102,54.595,123.495,56.299z"/>
	<path fill="#898989" d="M119.548,53.255c-1.53-0.102-2.646-0.829-3.321-2.215C118.141,50.57,119.137,51.475,119.548,53.255z"/>
	<path fill="#898989" d="M129.282,76.184c-0.886-1.135-0.619-2.114,0.399-2.992C130.617,74.331,130.423,75.32,129.282,76.184z"/>
	<path fill="#898989" d="M128.063,60.529c-1.063-0.125-1.656-0.724-1.803-1.778C127.59,58.606,128.225,59.165,128.063,60.529z"/>
	<path fill="#898989" d="M97.514,80.857c-0.099,0.08-0.195,0.162-0.293,0.244c-0.078-0.1-0.228-0.203-0.22-0.293
		c0.007-0.09,0.175-0.164,0.271-0.244C97.354,80.662,97.434,80.76,97.514,80.857z"/>
	<path fill="#191919" d="M99.771,93.348c0.303,0.299,0.604,0.596,0.906,0.893C99.971,94.354,99.867,93.855,99.771,93.348z"/>
	<path fill="#FDFDFD" d="M43.888,102.512c-6.834-0.089-10.442-3.824-10.287-10.652c0.137-6.02,4.465-10.053,10.701-9.974
		c6.348,0.081,10.318,4.074,10.286,10.341C54.553,98.927,50.73,102.602,43.888,102.512z M40.646,90.22
		c-2.598,1.31-2.373,3.007-0.677,4.907c1.706,3.479,4.368,4.008,7.356,1.938c2.434-1.687,2.687-4.315,0.948-6.575
		C46.026,87.566,43.289,87.514,40.646,90.22z"/>
	<path fill="#191919" d="M40.646,90.22c2.643-2.706,5.38-2.653,7.628,0.27c1.738,2.26,1.485,4.89-0.948,6.575
		c-2.988,2.07-5.65,1.543-7.356-1.938c1.874,0.545,3.96,0.794,4.539-1.505C45.286,90.534,42.071,91.234,40.646,90.22z"/>
	<path fill="#898989" d="M40.646,90.22c1.425,1.015,4.64,0.314,3.862,3.402c-0.579,2.299-2.665,2.05-4.539,1.505
		C38.273,93.227,38.049,91.527,40.646,90.22z"/>
</g>
</svg>
