<?xml version="1.0" encoding="utf-8"?>
<!-- Generator: Adobe Illustrator 16.0.0, SVG Export Plug-In . SVG Version: 6.00 Build 0)  -->
<!DOCTYPE svg PUBLIC "-//W3C//DTD SVG 1.0//EN" "http://www.w3.org/TR/2001/REC-SVG-20010904/DTD/svg10.dtd">
<svg version="1.0" id="Layer_1" xmlns="http://www.w3.org/2000/svg" xmlns:xlink="http://www.w3.org/1999/xlink" x="0px" y="0px"
	 width="150px" height="150px" viewBox="0 0 150 150" enable-background="new 0 0 150 150" xml:space="preserve">
<g>
	<path d="M81.949,33.447c-0.174,0.373-0.289,0.521-0.311,0.681c-0.452,3.377-1.465,6.62-2.351,9.894
		c-0.305,1.126-0.54,2.271-0.871,3.388c-0.722,2.432-1.447,4.863-2.235,7.274c-1.261,3.863-2.561,7.714-3.868,11.563
		c-1.141,3.359-2.259,6.728-3.49,10.054c-0.943,2.547-2.018,5.045-3.086,7.543c-0.653,1.526-1.201,3.012-1.154,4.753
		c0.113,4.259-0.862,8.372-2.411,12.299c-1.193,3.027-2.744,5.915-4.153,8.857c-0.536,1.117-1.195,2.184-1.663,3.327
		c-0.498,1.217-0.835,2.499-1.244,3.752c-0.714,2.184-0.784,4.443-0.561,6.687c0.09,0.904,0.567,1.825,1.058,2.621
		c0.823,1.334,0.843,2.735,0.715,4.207c-0.359,4.136-0.725,8.272-1.013,12.414c-0.062,0.89-0.542,0.838-1.131,0.857
		c-0.65,0.021-0.842-0.266-0.822-0.903c0.087-2.674,0.133-5.348,0.178-8.021c0.003-0.179-0.13-0.36-0.2-0.541
		c-0.181,0.082-0.451,0.113-0.527,0.252c-0.545,0.991-1.12,1.978-1.554,3.02c-0.655,1.574-0.491,3.268-0.533,4.924
		c-0.035,1.361-0.269,2.634-0.904,3.89c-0.757,1.493-2.008,2.272-3.417,2.896c-1.576,0.695-3.248,0.881-4.948,0.601
		c-0.604-0.1-1.193-0.324-1.77-0.542c-0.161-0.061-0.326-0.28-0.368-0.456c-0.173-0.729-0.396-1.466-0.414-2.204
		c-0.013-0.528,0.252-1.07,0.427-1.594c0.162-0.485,0.414-0.942,0.549-1.433c0.579-2.1,0.838-4.345,1.762-6.274
		c1.146-2.39,1.384-4.977,2.212-7.423c0.545-1.609,0.5-3.416,0.729-5.134c0.118-0.89,0.261-1.776,0.385-2.665
		c0.132-0.949,0.213-1.908,0.394-2.848c0.438-2.291,1.058-4.557,1.354-6.863c0.459-3.574,0.863-7.17,1.003-10.768
		c0.125-3.22,0.898-6.277,1.899-9.263c0.875-2.612,2.179-5.081,3.285-7.617c0.09-0.207,0.184-0.442,0.173-0.659
		c-0.147-3.02,0.383-5.941,1.194-8.831c0.095-0.34,0.111-0.72,0.083-1.074c-0.558-6.98-0.472-13.958,0.077-20.933
		c0.167-2.122,0.313-4.249,0.579-6.359c0.444-3.527,0.784-7.083,1.525-10.552c0.854-3.993,0.785-8.055,1.336-12.062
		c0.528-3.83,0.942-7.677,1.51-11.501c0.369-2.485,0.915-4.943,1.397-7.411c0.293-1.5,0.587-3.002,0.955-4.485
		c0.062-0.25,0.484-0.533,0.774-0.577c0.609-0.093,1.242-0.043,1.864-0.043c11.559-0.001,23.118,0.01,34.675-0.022
		c0.91-0.002,1.326,0.321,1.529,1.152c0.503,2.058,1.135,4.089,1.545,6.165c0.679,3.432,1.408,6.87,1.776,10.342
		c0.406,3.841,0.588,7.723,0.588,11.587c0,8.621-0.161,17.243-0.287,25.863c-0.029,2.129-0.114,4.259-0.269,6.381
		c-0.169,2.315-0.383,4.631-0.691,6.931c-0.561,4.172-1.005,8.344-0.331,12.538c0.145,0.905,0.557,1.768,0.828,2.656
		c0.195,0.643,0.387,1.289,0.534,1.944c0.844,3.752,1.661,7.514,1.395,11.396c-0.107,1.569-0.39,3.129-0.609,4.69
		c-0.167,1.181-0.386,2.354-0.54,3.537c-0.322,2.47-0.629,4.942-0.919,7.417c-0.264,2.243-0.512,4.487-0.737,6.733
		c-0.137,1.368-0.19,2.743-0.327,4.112c-0.268,2.679,0.149,5.288,0.815,7.862c0.472,1.829,0.981,3.65,1.583,5.438
		c0.26,0.771,0.854,1.424,1.188,2.18c0.319,0.723,0.635,1.493,0.709,2.267c0.12,1.234-0.006,2.489,0.055,3.732
		c0.059,1.166-0.566,1.915-1.402,2.536c-2.357,1.752-5.051,2.34-7.935,2.127c-0.259-0.02-0.632-0.345-0.716-0.604
		c-0.892-2.748-1.455-5.562-1.582-8.458c-0.156-3.58-0.395-7.157-0.493-10.738c-0.052-1.915,0.344-3.767,0.837-5.653
		c0.772-2.951,1.125-6.018,0.177-9.073c-0.343-1.107-0.494-2.279-0.677-3.431c-0.511-3.229-1.083-6.452-1.462-9.698
		c-0.501-4.275-0.788-8.577-1.274-12.857c-0.189-1.662-0.668-3.291-1.017-4.935c-0.021-0.101-0.075-0.194-0.096-0.296
		c-0.553-2.819-1.104-5.64-1.657-8.46c-0.323-1.652-0.647-3.303-0.979-4.954c-0.227-1.118-0.461-2.233-0.696-3.349
		c-0.371-1.75-0.766-3.494-1.11-5.248c-0.607-3.102-1.204-6.207-1.773-9.316c-0.592-3.237-1.208-6.472-1.693-9.726
		c-0.354-2.378-0.511-4.786-0.758-7.181c-0.047-0.464-0.071-0.935-0.169-1.389C82.346,34.103,82.163,33.868,81.949,33.447z"/>
</g>
</svg>
