<?xml version="1.0" encoding="utf-8"?>
<!-- Generator: Adobe Illustrator 16.0.0, SVG Export Plug-In . SVG Version: 6.00 Build 0)  -->
<!DOCTYPE svg PUBLIC "-//W3C//DTD SVG 1.0//EN" "http://www.w3.org/TR/2001/REC-SVG-20010904/DTD/svg10.dtd">
<svg version="1.0" id="Layer_1" xmlns="http://www.w3.org/2000/svg" xmlns:xlink="http://www.w3.org/1999/xlink" x="0px" y="0px"
	 width="150px" height="150px" viewBox="231 321 150 150" enable-background="new 231 321 150 150" xml:space="preserve">
<g>
	<path fill="#637B94" d="M307.507,321c0.218,1.13,0.106,2.266,0.065,3.401c0.172,0.602-0.313,0.572-0.623,0.565
		c-0.974-0.021-1.934,0.21-2.91,0.142c-9.383-0.195-18.767-0.134-28.149-0.157c-0.833-0.001-1.705,0.176-2.483-0.315
		c-0.342-1.208-0.28-2.421-0.046-3.636C284.743,321,296.125,321,307.507,321z"/>
	<path fill="#667B94" d="M310.632,324.481c0.022-1.16,0.044-2.321,0.065-3.48c11.17,0,22.339,0,33.508,0
		c0.013,1.238,0.023,2.477,0.035,3.715c-0.06,0.064-0.119,0.128-0.178,0.193c-1.476-0.203-2.949-0.262-4.42,0.075
		c-9.465,0.073-18.928-0.107-28.392,0C310.918,324.973,310.645,324.888,310.632,324.481z"/>
	<path fill="#7C9EC1" d="M273.361,321c0.007,1.165,0.013,2.33,0.019,3.495c0.485,0.333,1.034,0.171,1.549,0.172
		c5.477,0.014,10.953,0.006,16.429,0.009c1.683,0.001,1.914,0.141,1.934,1.744c0.036,2.801,0.042,2.68,2.953,2.697
		c2.657,0.015,5.315-0.067,7.974,0.044c0.52,0.036,1.055,0.033,1.393,0.537c-0.031,0.1-0.092,0.179-0.184,0.236
		c-0.686,0.511-1.485,0.519-2.287,0.519c-8.241,0.004-16.482,0.004-24.723-0.001c-0.798,0-1.605,0.02-2.283-0.522
		c-0.879-0.552-1.849-0.143-2.77-0.258c-0.4-0.05-0.922,0.068-0.929-0.557c-0.014-1.312-0.398-2.828,0.125-3.887
		c0.722-1.461,0.412-2.818,0.481-4.229C273.149,321,273.255,321,273.361,321z"/>
	<path fill="#E9AB82" d="M273.653,467.148c-0.445-0.859-0.813-0.565-1.249,0.04c-1.004,1.397-1.921,1.618-3.471,0.889
		c-0.967-0.455-1.994-0.579-2.938-1.334c-2.556-2.042-1.92-4.067-0.362-5.868c1.437-1.66,3.157-2.982,4.878-4.272
		c2.17-1.628,3.254-4.018,4.767-6.106c0.525-0.725,0.169-1.68,0.406-2.485c1.454-4.939,1.276-9.906,0.67-14.968
		c-0.598-4.996-0.757-10.047-1.04-15.077c-0.375-6.68-0.65-13.364-0.633-20.056c0.013-5.007,0.577-9.937,2.061-14.744
		c0.866-2.804,1.197-5.709,1.297-8.627c0.179-5.196,1.043-10.35,0.789-15.576c-0.311-6.362-1.086-12.676-1.753-19.003
		c-0.217-2.056-0.384-4.116-0.575-6.175c0.252-0.321,0.618-0.431,0.99-0.434c4.816-0.037,9.628-0.733,14.448,0.245
		c4.603,0.934,7.143,3.824,7.082,8.564c-0.045,3.468-1.072,6.811-1.404,10.251c-0.464,4.807-1.31,9.57-1.891,14.367
		c-0.367,3.034-1.114,6.057-2.119,8.979c-0.227,0.66-0.537,1.273-1.063,1.75c-2.001,1.412-4.251,1.806-6.65,1.648
		c-1.601-0.104-2.605-1.3-3.876-2.064c0.926,2.68,3.467,3.768,6.572,2.924c0.835-0.227,1.569-0.971,2.549-0.576
		c0.501,0.5,0.375,1.065,0.166,1.633c-1.913,5.2-2.485,10.627-2.813,16.109c-0.445,7.438-1.709,14.76-3.133,22.064
		c-0.997,5.11-2.13,10.199-2.796,15.37c-0.391,3.038-0.034,6.053,0.508,9.04c0.264,1.452,0.218,2.82-0.275,4.229
		c-0.559,1.597-1.016,3.207-0.807,4.982c0.158,1.346-0.506,2.593-1.253,3.713c-0.93,1.396-1.489,2.932-1.879,4.546
		c-0.254,1.05-0.347,2.094,0.034,3.14c0.292,0.804,0.261,1.566-0.362,2.225c-0.578,0.261-0.691-0.307-0.958-0.565
		c-0.519-0.506-1.049-0.627-1.767-0.158c0.319,0.51,0.894,0.316,1.233,0.568c0.446,0.332,0.94,0.683,0.083,1.128
		C275.936,467.641,274.749,467.892,273.653,467.148z"/>
	<path fill="#E9AB82" d="M341.989,469.771c-1.664,1.654-3.085,1.277-4.213-1.255c-0.579,0.969-0.975,2.007-2.206,2.243
		c-1.069,0.205-2.089,0.348-3.097-0.193c-0.868-0.467-1.47-1.071-1.188-2.156c0.101-0.385,0.118-0.768-0.171-1.048
		c-1.429-1.384-1.311-3.155-1.297-4.916c0.004-0.686,0.016-1.403-0.171-2.051c-0.623-2.166-0.922-4.352-0.726-6.603
		c0.033-0.367,0.069-0.783-0.065-1.107c-1.386-3.331-0.816-6.628,0.008-9.968c0.687-2.782,0.233-5.612-0.065-8.402
		c-0.781-7.276-2.386-14.43-3.309-21.683c-0.875-6.889-1.751-13.779-2.062-20.729c-0.114-2.552-0.789-4.989-2.064-7.277
		c-1.96-3.515-2.866-7.417-3.614-11.322c-1.577-8.233-2.082-16.615-3.249-24.906c-0.708-5.036-1.441-10.069-2.155-15.104
		c-0.052-0.366-0.047-0.741-0.068-1.111c0.34-0.348,0.77-0.317,1.193-0.267c1.643,0.194,3.295,0.155,4.937,0.094
		c3.812-0.142,6.813,1.555,9.633,3.895c5.288,4.386,6.312,10.17,5.649,16.555c-0.055,0.527-0.165,1.05-0.174,1.583
		c-0.064,3.503-0.072,7.001-0.28,10.506c-0.249,4.185,0.192,8.378,0.667,12.545c0.138,1.207-0.074,2.089-1.213,2.624
		c-5.459,1.79-9.033,0.848-11.381-3.682c0.746,4.184,4.554,6.703,8.599,5.804c1.341-0.299,1.984-1.345,2.894-2.126
		c1.14-0.473,1.243,0.45,1.446,1.124c0.632,2.096,0.688,4.292,1.087,6.432c1.475,7.914,1.964,15.911,1.641,23.937
		c-0.346,8.584-0.799,17.157-2.234,25.664c-0.676,4.002-1.042,8.118,0.084,12.168c0.199,0.717,0.238,1.464,0.283,2.208
		c0.076,1.301,0.676,2.382,1.25,3.541c1.875,3.782,5.18,6.616,6.824,10.529c0.183,0.439,0.41,0.862,0.566,1.315
		c0.492,1.433,0.383,1.907-1.059,2.203C341.912,468.992,342.259,469.507,341.989,469.771z"/>
	<path fill="#E6A073" d="M332.389,379.706c1.861-1.057,0.951-2.747,0.879-4.18c-0.229-4.523-0.992-9.032-0.258-13.573
		c0.025-0.156,0.029-0.319,0.021-0.477c-0.226-4.61,0.438-9.205,0.294-13.807c-0.116-3.735-1.3-7.069-4.005-9.874
		c-2.189-2.271-4.65-3.963-7.577-5.061c-0.573-0.215-1.13-0.23-1.711-0.249c-2.587-0.081-5.188,0.238-7.757-0.303l0.006,0
		c-0.316-2.174-0.188-2.367,1.896-2.371c8.127-0.019,16.254-0.012,24.381-0.003c0.635,0,1.288-0.036,1.807,0.447
		c-0.242,3.603-0.922,7.149-1.402,10.72c-1.406,10.439-2.382,20.903-1.402,31.441c0.525,5.653,1.481,11.253,2.324,16.867
		c1.267,8.44,1.346,16.928,0.949,25.439c-0.285,6.108-0.654,12.217-1.71,18.23c-1.026,5.834-1.068,11.52,0.104,17.368
		c0.703,3.504,2.56,6.144,4.553,8.769c1.185,1.563,2.291,3.175,3.372,4.794c1.351,2.02,0.198,4.367-2.135,5.21
		c-1.011,0.365-1.948,0.761-3.03,0.676c0.035-0.721-0.665-1.046-1.002-1.753c0.721-0.02,0.966,0.896,1.729,0.551
		c0.998-0.451,1.038-1.221,0.29-2.762c-1.274-2.631-3.285-4.75-4.796-7.185c-1.257-2.028-2.997-3.874-3.476-6.336
		c-1.221-6.284-1.193-12.56-0.01-18.865c0.652-3.469,1.031-6.985,1.205-10.526c0.34-6.935,0.9-13.865,0.586-20.81
		c-0.195-4.319-0.497-8.648-1.342-12.902c-0.566-2.845-0.668-5.761-1.438-8.574c-0.185-0.674-0.318-0.988-1.003-0.563
		C332.539,380.013,332.428,379.896,332.389,379.706z"/>
	<path fill="#E6A072" d="M273.653,467.148c1.288,0,2.575,0,3.863-0.001c0.193-0.229,0.318-0.527,0.639-0.625
		c0.954-0.96,0.166-1.891,0.049-2.886c-0.273-2.336,0.506-4.538,1.666-6.513c1.063-1.81,2.038-3.466,1.56-5.751
		c-0.203-0.969,0.388-2.164,0.795-3.186c0.629-1.579,0.732-3.14,0.377-4.79c-0.948-4.409-0.711-8.777,0.221-13.189
		c1.033-4.892,1.983-9.811,2.842-14.73c0.894-5.125,1.764-10.268,2.13-15.496c0.43-6.135,0.608-12.351,2.749-18.258
		c0.252-0.696,1.161-1.415,0.365-2.319c0.125-0.84,1.127-1.104,1.27-1.932c1.658-2.501,1.881-5.443,2.579-8.246
		c0.957-3.843,1.21-7.796,1.701-11.691c0.671-5.328,1.842-10.594,2.114-15.973c0.167-3.276-2.561-6.855-6.728-7.563
		c-5.147-0.874-10.234-0.058-15.343-0.213c-0.485-1.25-0.211-2.573-0.366-3.854c9.763,0.001,19.526,0.003,29.291,0.004
		c-1.394,8.159-2.826,16.312-4.172,24.479c-0.932,5.654-1.701,11.335-2.625,16.991c-0.603,3.689-1.881,7.186-3.427,10.578
		c-1.856,4.072-2.754,8.412-2.937,12.808c-0.433,10.449-2.447,20.648-4.366,30.874c-0.685,3.649-1.353,7.304-1.942,10.97
		c-0.472,2.937,0.073,5.827,0.713,8.681c0.327,1.458,0.29,2.801-0.364,4.171c-0.756,1.585-1.329,3.188-0.838,5.053
		c0.308,1.173-0.306,2.322-1.035,3.249c-1.155,1.465-1.888,3.027-1.955,4.934c-0.051,1.432-0.597,2.691-1.973,3.424
		c-0.33,0.175-0.559,0.441-0.718,0.813c-0.868,2.017-3.398,2.826-5.292,1.736C273.883,468.342,273.511,467.895,273.653,467.148z"/>
	<path fill="#7A9EC0" d="M310.632,324.481c0.124,0.112,0.249,0.225,0.372,0.337c0.881-0.291,1.786-0.13,2.678-0.133
		c4.986-0.019,9.973,0.021,14.957-0.034c1.066-0.012,1.349,0.375,1.422,1.357c0.074,1.01-0.627,2.314,0.349,2.963
		c0.773,0.515,1.965,0.123,2.97,0.141c1.326,0.024,2.652-0.015,3.979,0.018c0.631,0.016,1.286-0.016,1.787,0.495
		c-0.051,0.563-0.486,0.461-0.835,0.461c-8.572,0.005-17.146,0.006-25.718,0.005c-0.223,0-0.415-0.052-0.578-0.203
		c-0.486-0.603-1.796,0.282-1.816-0.721C310.168,327.611,309.569,325.949,310.632,324.481z"/>
	<path fill="#5E82A2" d="M305.612,329.699c-0.419-0.05-0.84-0.1-1.259-0.15c-0.818-1.571-0.795-3.146-0.021-4.723
		c1.032-0.512,2.182-0.116,3.241-0.425c0.087,0.132,0.174,0.263,0.262,0.394c1.277,0.068,1.5,0.781,1.455,1.958
		c-0.1,2.655-0.028,2.655-2.629,2.702c-0.359,0.006-0.741-0.093-1.063,0.167L305.612,329.699z"/>
	<path fill="#E9AB82" d="M312.014,329.887c8.414-0.01,16.828-0.015,25.242-0.04c0.616-0.002,1.273,0.194,1.847-0.222
		c0.359-0.235,0.745-0.15,1.13-0.094c0.047,0.045,0.093,0.09,0.139,0.136c-0.002,0.196-0.004,0.393-0.006,0.588
		c-8.682-0.001-17.365,0.036-26.047-0.038c-1.535-0.013-2.33,0.293-2.038,1.964C311.78,331.466,312.046,330.659,312.014,329.887z"/>
	<path fill="#506F8B" d="M305.596,329.622c0.354-0.469,0.882-0.223,1.322-0.336c0.729-0.188,1.801,0.597,2.158-0.652
		c0.479-1.669-0.06-3.225-1.242-3.839c1.304-0.281,1.669,0.209,1.627,1.548c-0.106,3.36-0.033,3.363-3.391,3.311
		C305.912,329.651,305.755,329.633,305.596,329.622z"/>
	<path fill="#516E85" d="M344.24,324.715c0.629,1.465,0.187,3,0.288,4.5c0.04,0.593-0.489,0.429-0.817,0.435
		c-1.113,0.022-2.227,0.014-3.34,0.019l0.034-0.094c-0.107-0.182-0.074-0.332,0.101-0.449c2.453,0.053,3.754-0.958,3.347-3.589
		c-0.038-0.245,0.162-0.49,0.361-0.674L344.24,324.715z"/>
	<path fill="#7393B2" d="M304.332,324.826c0.007,1.574,0.014,3.149,0.021,4.723c-3.44,0.021-6.881,0.024-10.32,0.076
		c-0.873,0.013-1.214-0.269-1.229-1.178c-0.018-1.142,0.539-2.614-0.281-3.348c-0.854-0.764-2.333-0.246-3.536-0.254
		c-4.659-0.032-9.318-0.005-13.978-0.025c-0.549-0.002-1.18,0.241-1.629-0.325c9.711,0.008,19.422,0.011,29.132,0.033
		C303.123,324.529,303.796,324.304,304.332,324.826z"/>
	<path fill="#7194B4" d="M340.405,329.313c-0.016,0.088-0.016,0.175,0.002,0.262c-0.425,0.28-0.852,0.46-1.303,0.052
		c-2.809-0.005-5.617-0.038-8.426,0.001c-0.874,0.012-1.348-0.049-1.188-1.16c0.163-1.136,0.519-2.713-0.05-3.364
		c-0.692-0.792-2.29-0.253-3.493-0.26c-4.979-0.032-9.96-0.021-14.941-0.025c0.481-0.499,1.101-0.293,1.659-0.293
		c9.125-0.01,18.249-0.003,27.373-0.001C341.427,326.023,340.969,327.663,340.405,329.313z"/>
	<path fill="#5F829E" d="M340.405,329.313c-0.213-1.589,0.324-3.236-0.366-4.789c1.433-0.389,2.843-0.506,4.177,0.338
		c-0.004,1.059-0.059,2.121,0.004,3.175c0.057,0.97-0.302,1.347-1.273,1.278C342.102,329.255,341.252,329.309,340.405,329.313z"/>
	<path fill="#E49768" d="M292.178,377.473c0.247,0.047,0.634,0.098,0.336,0.434c-0.484,0.545-1.065,1.003-1.605,1.498
		c-2.473,1.49-4.987,1.902-7.603,0.34c-1.352-0.808-1.785-2.08-2.004-3.483c0.437-0.226,0.599,0.033,0.759,0.207
		c2.748,2.977,5.849,2.799,9.082,1.377C291.478,377.699,291.833,377.597,292.178,377.473z"/>
	<path fill="#EDBA98" d="M278.155,466.522c-0.022,0.403-0.223,0.624-0.639,0.625c-0.345-0.739-1.021-0.607-1.643-0.632
		c-0.304-0.012-0.67,0.054-0.81-0.322c-0.18-0.486,0.26-0.62,0.539-0.828C276.762,464.5,277.802,464.975,278.155,466.522z"/>
	<path fill="#E49767" d="M332.389,379.706c0.114,0.114,0.229,0.229,0.344,0.342c-0.829,2.243-2.918,2.571-4.727,2.454
		c-3.92-0.255-7.676-3.464-7.002-7.743c0.877,1.178,1.387,2.439,2.313,3.463c1.486,1.643,3.278,1.978,5.291,1.847
		C329.871,379.986,331.129,379.829,332.389,379.706z"/>
</g>
</svg>
